<svg id="그룹_2" data-name="그룹 2" xmlns="http://www.w3.org/2000/svg" xmlns:xlink="http://www.w3.org/1999/xlink" width="700.216" height="401.004" viewBox="0 0 700.216 401.004">
  <defs>
    <clipPath id="clip-path">
      <rect id="사각형_1" data-name="사각형 1" width="700.216" height="401.004" fill="none"/>
    </clipPath>
  </defs>
  <g id="그룹_1" data-name="그룹 1" clip-path="url(#clip-path)">
    <path id="패스_1" data-name="패스 1" d="M84.541,151.587,15.78,99.833S1.931,91.33.959,78.939,0,8.862,0,8.862,2.659.7,9.705.217s678.476,0,678.476,0,6.047-.094,9.13,3.9,2.9,4.9,2.9,4.9V75.947s-2.044,10.811-8.618,17.661c-6.652,6.93-74.462,57.556-74.645,57.256l-5.8.362,33.444-36.8a18.558,18.558,0,0,0,4.927-11.285,11.645,11.645,0,0,0-1.725-7.278c-3.98-5.948-9.436-5.4-9.436-5.4L60.621,90.98s-8.121,1.238-9.028,8.313a22.564,22.564,0,0,0,2.3,12.751l35.735,39.726Z" transform="translate(0 0)" fill="#fff"/>
    <path id="패스_2" data-name="패스 2" d="M604.338,256.252l4.619.119,8.528-7.343c.183.3,65.36-52.055,72.01-58.984a48.766,48.766,0,0,0,7.674-11.081,22.9,22.9,0,0,0,2.551-10.384l.492-61.708s.183-.906-2.9-4.9-9.13-3.9-9.13-3.9-671.43-.486-678.476,0S0,106.724,0,106.724s.322,64.143.424,69.091a16.255,16.255,0,0,0,12.219,12.624c2.525.6,47.978.4,47.978.4l567.056-.518a11.905,11.905,0,0,1,5.394,1.262,16.736,16.736,0,0,1,5.26,3.894c3.08,4.028,3.443,9.526,3.317,14.45-.356,13.74-32.808,43.232-37.308,48.324" transform="translate(0 53.521)" fill="#fff"/>
    <path id="패스_3" data-name="패스 3" d="M57.509,224.267s-6.431-1.333-8.7-7.283c-2.941-7.731,4.118-16.127,4.118-16.127L95.951,157.3l-2.726-.685S5.407,220.547,2.208,230.993c-.26.849-1.462,3.046-1.668,3.742-.667,1.437-.347,66.431-.347,66.431a14.183,14.183,0,0,0,14.182,14.182H685.4a14.181,14.181,0,0,0,14.181-14.182V239.24c0-7.832-6.349-14.181-14.007-14.959H82.894Z" transform="translate(0.064 85.656)" fill="#fff"/>
  </g>
</svg>
